<?xml version="1.0" encoding="utf-8" ?><svg xmlns="http://www.w3.org/2000/svg" xmlns:xlink="http://www.w3.org/1999/xlink" width="1024" height="1280" viewBox="0 0 1024 1280"><path fill="#FAF7F5" transform="scale(2 2)" d="M334.421 66.9636L363.237 66.9447C367.277 66.942 373.79 66.7137 377.56 66.9636L377.56 89.4162C384.353 89.651 391.42 89.381 398.266 89.4162L398.266 177.162L377.56 177.162C377.767 184.562 377.535 192.511 377.56 199.965C380.017 199.906 382.156 199.867 384.626 199.965L398.266 199.965L398.266 246.863L398.266 246.863L419.784 246.863L419.784 292.969C412.735 293.04 405.184 292.776 398.266 292.969L398.304 307.613C398.324 309.78 398.527 314.054 398.266 315.935L377.56 315.935L377.594 331.095C377.609 333.689 377.771 336.925 377.56 339.44L356.108 339.44C356.33 341.064 356.293 358.889 356.108 359.759C355.909 353.274 356.086 345.984 356.108 339.44L312.804 339.44L295.613 339.44L221.967 339.44L203.404 339.44L199.437 339.44L155.661 339.44L155.731 354.372C155.743 355.91 155.889 360.259 155.661 361.472C155.009 358.034 155.493 343.324 155.661 339.44L134.437 339.44L134.437 315.935L113.149 315.935L113.149 292.969C106.224 293.189 98.3467 292.989 91.342 292.969L91.342 246.863L113.149 246.863C113.41 231.504 113.157 215.383 113.149 199.965L134.437 199.965C135.063 197.504 134.335 181.003 134.437 177.162L113.149 177.162L113.149 89.4162C120.152 89.4178 127.462 89.2548 134.437 89.4162C134.081 83.2933 134.42 73.3746 134.437 66.9636L177.609 66.9636C178.074 72.8372 178.049 82.7636 177.609 88.5422L177.944 89.188C180.2 89.655 196.359 89.4243 199.437 89.4162L199.437 111.549L312.804 111.549C312.635 110.977 312.646 90.5235 312.804 89.4162L334.421 89.4162C333.949 84.4395 334.449 72.7373 334.421 66.9636Z"/><path fill="#FAF7F5" transform="scale(2 2)" d="M334.421 66.9636L363.237 66.9447C367.277 66.942 373.79 66.7137 377.56 66.9636L377.56 89.4162C384.353 89.651 391.42 89.381 398.266 89.4162L398.266 177.162L377.56 177.162C377.17 171.707 377.548 160.886 377.56 155.015L356.108 155.015L356.108 133.091C350.394 133.086 339.481 133.532 334.421 133.091L334.421 133.091C327.422 133.664 319.821 133.252 312.804 133.091L312.804 133.091C312.644 131.383 312.762 127.486 312.766 125.639L312.804 111.549C312.635 110.977 312.646 90.5235 312.804 89.4162L334.421 89.4162C333.949 84.4395 334.449 72.7373 334.421 66.9636Z"/><path fill="#361504" transform="scale(2 2)" d="M334.421 66.9636L363.237 66.9447C367.277 66.942 373.79 66.7137 377.56 66.9636L377.56 89.4162C384.353 89.651 391.42 89.381 398.266 89.4162L398.266 177.162L377.56 177.162C377.17 171.707 377.548 160.886 377.56 155.015C377.274 152.003 377.538 142.974 377.544 139.606L377.56 106.079L377.56 89.4162L334.421 89.4162C333.949 84.4395 334.449 72.7373 334.421 66.9636Z"/><path fill="#310F02" transform="scale(2 2)" d="M312.804 89.4162L334.421 89.4162C334.523 96.7921 334.338 104.197 334.421 111.549C334.7 118.888 333.968 125.336 334.421 133.091C327.422 133.664 319.821 133.252 312.804 133.091L312.804 133.091C312.644 131.383 312.762 127.486 312.766 125.639L312.804 111.549C312.635 110.977 312.646 90.5235 312.804 89.4162Z"/><path fill="#F7ECE6" transform="scale(2 2)" d="M334.421 111.549C334.7 118.888 333.968 125.336 334.421 133.091C327.422 133.664 319.821 133.252 312.804 133.091L312.804 133.091C312.644 131.383 312.762 127.486 312.766 125.639L312.804 111.549C319.581 111.337 327.547 111.547 334.421 111.549Z"/><path fill="#C7C5C4" transform="scale(2 2)" d="M377.56 111.549C377.458 109.845 377.228 107.709 377.56 106.079L377.544 139.606C377.538 142.974 377.274 152.003 377.56 155.015L356.108 155.015L356.108 133.091C350.394 133.086 339.481 133.532 334.421 133.091C336.261 132.918 339.754 133.045 341.705 133.051L356.108 133.091L356.108 111.549L377.56 111.549Z"/><path fill="#FEE04C" transform="scale(2 2)" d="M199.437 111.549L312.804 111.549L312.766 125.639C312.762 127.486 312.644 131.383 312.804 133.091L312.804 133.091C312.356 138.696 312.838 148.84 312.804 155.015L297.809 154.98C295.95 154.977 292.031 154.858 290.351 155.015C283.27 155.32 274.744 154.99 267.524 155.015L267.485 169.821C267.475 171.414 267.333 175.928 267.524 177.162L244.742 177.162L244.742 181.053C244.643 179.594 244.891 179.092 244.519 177.484L243.87 177.162C242.168 176.933 238.158 177.107 236.213 177.122L222.633 177.162C222.456 170.172 222.539 162.027 222.633 155.015C222.886 153.131 222.74 148.235 222.713 146.263L222.633 133.091L199.437 133.091L199.437 133.091C199.281 126.134 199.436 118.557 199.437 111.549Z"/><path fill="#310F02" transform="scale(2 2)" d="M199.437 111.549L312.804 111.549L312.766 125.639C312.762 127.486 312.644 131.383 312.804 133.091C309.746 133.32 305.558 133.157 302.381 133.135L222.633 133.091L199.437 133.091L199.437 133.091C199.281 126.134 199.436 118.557 199.437 111.549Z"/><path fill="#FE6233" transform="scale(2 2)" d="M222.633 155.015C229.371 155.344 237.78 154.995 244.742 155.015C244.751 157.798 245.126 176.09 244.289 177.076L243.87 177.162C242.168 176.933 238.158 177.107 236.213 177.122L222.633 177.162C223.015 170.714 222.597 161.77 222.633 155.015Z"/><path fill="#361504" transform="scale(2 2)" d="M134.437 66.9636L177.609 66.9636C178.074 72.8372 178.049 82.7636 177.609 88.5422L177.944 89.188C180.2 89.655 196.359 89.4243 199.437 89.4162L199.437 111.549C199.436 118.557 199.281 126.134 199.437 133.091C198.784 133.244 159.407 133.286 158.326 133.091C153.736 132.973 155.568 130.362 155.622 125.326L155.661 111.549C149.385 111.568 141.449 111.794 135.313 111.464C134.643 110.935 134.627 109.105 134.437 107.95L134.437 89.4162C134.081 83.2933 134.42 73.3746 134.437 66.9636Z"/><path fill="#F7ECE6" transform="scale(2 2)" d="M177.609 111.549L199.437 111.549C199.436 118.557 199.281 126.134 199.437 133.091C198.784 133.244 159.407 133.286 158.326 133.091C153.736 132.973 155.568 130.362 155.622 125.326L155.661 111.549C163.516 111.287 170.133 111.657 177.609 111.549Z"/><path fill="#FAF7F5" transform="scale(2 2)" d="M134.437 89.4162L163.793 89.4284C166.917 89.4332 174.972 89.6965 177.609 89.4162C178.084 94.6631 177.557 105.556 177.609 111.549C170.133 111.657 163.516 111.287 155.661 111.549C149.385 111.568 141.449 111.794 135.313 111.464C134.643 110.935 134.627 109.105 134.437 107.95L134.437 89.4162Z"/><path fill="#C7C5C4" transform="scale(2 2)" d="M177.609 292.969C178.087 297.583 177.595 310.5 177.609 315.935C183.263 315.95 194.262 316.309 199.437 315.935L199.437 339.44L155.661 339.44L155.731 354.372C155.743 355.91 155.889 360.259 155.661 361.472C155.009 358.034 155.493 343.324 155.661 339.44L134.437 339.44L134.437 315.935L113.149 315.935L113.149 292.969C119.109 292.979 128.793 293.32 134.437 292.969C144.795 291.804 166.84 292.698 177.609 292.969Z"/><path fill="#361504" transform="scale(2 2)" d="M134.437 315.935L155.661 315.935C155.659 321.587 156.594 334.546 155.661 339.44L134.437 339.44L134.437 315.935Z"/><path fill="#310F02" transform="scale(2 2)" d="M113.149 292.969C119.109 292.979 128.793 293.32 134.437 292.969L134.437 315.935L113.149 315.935L113.149 292.969Z"/><path fill="#C7C5C4" transform="scale(2 2)" d="M334.421 292.969C338.916 292.973 376.248 292.522 377.56 292.969C383.921 292.737 391.783 292.965 398.266 292.969L398.304 307.613C398.324 309.78 398.527 314.054 398.266 315.935L377.56 315.935L377.594 331.095C377.609 333.689 377.771 336.925 377.56 339.44L356.108 339.44C356.33 341.064 356.293 358.889 356.108 359.759C355.909 353.274 356.086 345.984 356.108 339.44L312.804 339.44L312.804 315.935L334.421 315.935L334.421 292.969Z"/><path fill="#361504" transform="scale(2 2)" d="M377.56 292.969C383.921 292.737 391.783 292.965 398.266 292.969L398.304 307.613C398.324 309.78 398.527 314.054 398.266 315.935L377.56 315.935L377.594 331.095C377.609 333.689 377.771 336.925 377.56 339.44L356.108 339.44C356.304 331.914 356.113 323.531 356.108 315.935L377.56 315.935L377.56 292.969Z"/><path fill="#FD4A13" transform="scale(2 2)" d="M377.56 245.256C378.224 248.293 394.493 246.871 398.266 246.863L398.266 246.863L419.784 246.863L419.784 292.969C412.735 293.04 405.184 292.776 398.266 292.969C391.783 292.965 383.921 292.737 377.56 292.969C376.248 292.522 338.916 292.973 334.421 292.969C334.831 287.575 334.433 276.333 334.421 270.572L356.108 270.572L377.56 270.572C377.53 262.966 377.825 254.366 377.56 246.863L377.56 245.256Z"/><path fill="#361504" transform="scale(2 2)" d="M398.266 246.863L419.784 246.863L419.784 292.969C412.735 293.04 405.184 292.776 398.266 292.969C398.275 277.791 397.979 261.95 398.266 246.863Z"/><path fill="#361504" transform="scale(2 2)" d="M113.149 89.4162C120.152 89.4178 127.462 89.2548 134.437 89.4162L134.437 107.95C134.627 109.105 134.643 110.935 135.313 111.464C141.449 111.794 149.385 111.568 155.661 111.549L155.622 125.326C155.568 130.362 153.736 132.973 158.326 133.091C152.978 133.418 155.643 149.168 155.661 155.015L134.437 155.015C134.34 160.819 135.277 171.894 134.437 177.162L113.149 177.162L113.149 89.4162Z"/><path fill="#C7C5C4" transform="scale(2 2)" d="M134.437 107.95C134.627 109.105 134.643 110.935 135.313 111.464C141.449 111.794 149.385 111.568 155.661 111.549L155.622 125.326C155.568 130.362 153.736 132.973 158.326 133.091C152.978 133.418 155.643 149.168 155.661 155.015L134.437 155.015C134.707 151.433 134.455 143.646 134.453 139.751L134.437 107.95Z"/><path fill="#FD4A13" transform="scale(2 2)" d="M199.437 133.091L199.437 133.091L199.437 155.015L185.865 154.969C183.989 154.947 179.077 154.746 177.609 155.015L177.609 167.32C177.742 170.913 177.839 173.589 177.609 177.162L164.167 177.113C162.42 177.093 157.943 176.911 156.58 177.162L155.893 177.356C155.431 179.507 155.655 196.998 155.661 199.965C148.667 200.029 141.337 199.806 134.437 199.965L134.437 199.965C135.063 197.504 134.335 181.003 134.437 177.162C135.277 171.894 134.34 160.819 134.437 155.015L155.661 155.015C155.643 149.168 152.978 133.418 158.326 133.091C159.407 133.286 198.784 133.244 199.437 133.091Z"/><path fill="#FD4A13" transform="scale(2 2)" d="M312.804 133.091C319.821 133.252 327.422 133.664 334.421 133.091L334.421 133.091C339.481 133.532 350.394 133.086 356.108 133.091L356.108 155.015L377.56 155.015C377.548 160.886 377.17 171.707 377.56 177.162C377.767 184.562 377.535 192.511 377.56 199.965C380.017 199.906 382.156 199.867 384.626 199.965L377.56 199.965L356.108 199.965C356.105 194.02 356.558 182.489 356.108 177.162C355.851 176.961 336.525 177.143 334.421 177.162L334.421 155.015L312.804 155.015C312.838 148.84 312.356 138.696 312.804 133.091Z"/><path fill="#310F02" transform="scale(2 2)" d="M113.149 199.965L134.437 199.965L134.437 199.965L134.437 246.863C127.422 246.743 120.182 246.844 113.149 246.863L113.149 292.969C106.224 293.189 98.3467 292.989 91.342 292.969L91.342 246.863L113.149 246.863C113.41 231.504 113.157 215.383 113.149 199.965Z"/><path fill="#FD4A13" transform="scale(2 2)" d="M113.149 246.863C120.182 246.844 127.422 246.743 134.437 246.863C134.454 254.746 134.522 262.694 134.437 270.572L155.661 270.572L177.609 270.572C177.611 277.703 177.826 285.937 177.609 292.969C166.84 292.698 144.795 291.804 134.437 292.969C128.793 293.32 119.109 292.979 113.149 292.969L113.149 246.863Z"/><path fill="#FD4A13" transform="scale(2 2)" d="M267.524 155.015C274.744 154.99 283.27 155.32 290.351 155.015C290.362 159.516 290.615 173.239 289.908 176.789L289.484 177.162C282.456 176.629 274.575 176.806 267.524 177.162C267.432 178.634 267.332 188.14 267.524 189.364C266.879 192.568 266.96 196.667 266.974 199.965L244.742 199.965L244.742 181.053L244.742 177.162L267.524 177.162C267.333 175.928 267.475 171.414 267.485 169.821L267.524 155.015Z"/><path fill="#361504" transform="scale(2 2)" d="M384.626 199.965L398.266 199.965L398.266 246.863C394.493 246.871 378.224 248.293 377.56 245.256L377.56 199.965L384.626 199.965Z"/><path fill="#FEC73F" transform="scale(2 2)" d="M199.437 133.091L222.633 133.091L222.713 146.263C222.74 148.235 222.886 153.131 222.633 155.015C215.845 154.46 206.261 154.672 199.437 155.015L177.609 155.015C179.077 154.746 183.989 154.947 185.865 154.969L199.437 155.015L199.437 133.091Z"/><path fill="#FE6233" transform="scale(2 2)" d="M377.56 246.863C377.825 254.366 377.53 262.966 377.56 270.572L356.108 270.572C356.017 262.693 356.107 254.75 356.108 246.863C358.771 247.463 374.053 246.872 377.56 246.863Z"/><path fill="#FE6233" transform="scale(2 2)" d="M134.437 246.863C139.933 247.746 149.713 246.837 155.661 246.863L155.661 270.572L134.437 270.572C134.522 262.694 134.454 254.746 134.437 246.863Z"/><path fill="#F3696C" transform="scale(2 2)" d="M244.742 270.572L267.524 270.572L267.479 284.723C267.458 286.464 267.268 291.648 267.524 292.969L267.524 292.969L290.351 292.969L290.351 315.935L267.524 315.935L244.742 315.935L221.967 315.935L221.967 292.969L244.742 292.969L244.742 292.969L244.742 270.572Z"/><path fill="#090909" transform="scale(2 2)" d="M244.742 292.969C245.619 299.988 244.691 308.725 244.742 315.935L221.967 315.935L221.967 292.969L244.742 292.969Z"/><path fill="#090909" transform="scale(2 2)" d="M267.524 292.969L290.351 292.969L290.351 315.935L267.524 315.935L267.524 292.969Z"/><path fill="#090909" transform="scale(2 2)" d="M244.742 270.572L267.524 270.572L267.479 284.723C267.458 286.464 267.268 291.648 267.524 292.969C260.24 292.943 251.922 293.24 244.742 292.969L244.742 270.572Z"/><path fill="#090909" transform="scale(2 2)" d="M199.437 224.805L221.967 224.805L221.967 270.572L199.437 270.572L199.437 224.805Z"/><path fill="#090909" transform="scale(2 2)" d="M309.149 224.805L312.804 224.805L312.804 270.572L293.91 270.572L290.351 270.572L290.351 224.805L309.149 224.805Z"/><path fill="#FAF7F5" transform="scale(2 2)" d="M199.437 339.44L203.404 339.44L221.967 339.44L295.613 339.44L312.804 339.44L356.108 339.44C356.086 345.984 355.909 353.274 356.108 359.759L356.246 361.082C355.422 361.871 336.966 361.463 334.421 361.472C334.431 376.354 334.717 392.12 334.421 406.924L356.108 406.924L356.108 384.352L377.56 384.352L377.56 406.924C383.47 406.914 392.628 406.595 398.266 406.924L398.285 436.904C398.288 441.135 398.515 448.092 398.266 452.145C391.102 451.94 384.485 452.259 377.56 452.145C377.541 459.519 377.426 467.146 377.56 474.5C370.953 474.494 362.559 474.233 356.108 474.5L356.108 497.191C362.92 497.182 370.843 496.968 377.56 497.191L377.56 541.547L363.636 541.511C361.776 541.501 357.743 541.347 356.108 541.547L356.108 541.547L356.108 564.054L312.804 564.054L312.804 541.547L312.804 541.547C311.146 541.371 307.295 541.504 305.453 541.509L290.351 541.547L290.351 519.422L290.351 519.422C284.507 519.031 273.73 519.404 267.524 519.422C267.325 518.21 267.471 513.642 267.483 512.039L267.524 497.191C262.46 497.618 250.226 497.201 244.742 497.191L244.742 497.191C244.449 490.461 244.737 481.418 244.742 474.5C237.392 474.653 229.326 474.589 221.967 474.5C216.908 474.277 209.972 474.495 204.771 474.5C197.458 474.995 185.008 474.905 177.609 474.5L177.609 497.191C172.164 497.177 160.618 496.801 155.661 497.191C155.842 489.857 155.674 481.883 155.661 474.5C149.267 474.47 140.454 474.921 134.437 474.5L134.437 452.145L113.149 452.145L113.149 429.417C110.917 429.489 108.976 429.476 106.742 429.417C101.505 429.451 96.6442 429.23 91.342 429.417C91.1402 422.261 91.3361 414.156 91.342 406.924L113.149 406.924L134.437 406.924C138.617 407.308 150.891 406.938 155.661 406.924L155.661 384.352L177.609 384.352L177.609 361.472C171.228 361.169 162.249 361.465 155.661 361.472C155.889 360.259 155.743 355.91 155.731 354.372L155.661 339.44L199.437 339.44Z"/><path fill="#361504" transform="scale(2 2)" d="M199.437 339.44L203.404 339.44L221.967 339.44L295.613 339.44C294.67 339.934 291.697 339.535 290.351 339.44C290.311 341.821 290.397 359.864 289.675 360.95L289.332 360.919C288.53 360.852 288.07 360.701 287.421 361.115L287.599 361.472L267.524 361.472L244.742 361.472L221.967 361.472C221.965 368.802 221.87 376.334 221.967 383.646L221.967 384.352L221.967 406.924L221.967 406.924C215.766 407.032 205.4 407.646 199.437 406.924C199.437 414.046 199.682 422.399 199.437 429.417L199.437 452.145L177.609 452.145L177.609 474.5L177.609 497.191C172.164 497.177 160.618 496.801 155.661 497.191C155.842 489.857 155.674 481.883 155.661 474.5C149.267 474.47 140.454 474.921 134.437 474.5L134.437 452.145L113.149 452.145L113.149 429.417C110.917 429.489 108.976 429.476 106.742 429.417C101.505 429.451 96.6442 429.23 91.342 429.417C91.1402 422.261 91.3361 414.156 91.342 406.924L113.149 406.924L134.437 406.924C138.617 407.308 150.891 406.938 155.661 406.924L155.661 384.352L177.609 384.352L177.609 361.472C171.228 361.169 162.249 361.465 155.661 361.472C155.889 360.259 155.743 355.91 155.731 354.372L155.661 339.44L199.437 339.44Z"/><path fill="#FD4A13" transform="scale(2 2)" d="M199.437 361.472L221.967 361.472C221.965 368.802 221.87 376.334 221.967 383.646L221.967 384.352L221.967 406.924L221.967 406.924C215.766 407.032 205.4 407.646 199.437 406.924L199.437 384.352L199.437 361.472Z"/><path fill="#FEE04C" transform="scale(2 2)" d="M221.967 383.646L221.967 384.352L221.967 406.924L221.967 406.924C215.766 407.032 205.4 407.646 199.437 406.924L199.437 384.352C204.747 384.346 217.003 385.197 221.706 384.397L221.967 383.646Z"/><path fill="#FEE04C" transform="scale(2 2)" d="M113.149 406.924L134.437 406.924C134.449 412.901 134.832 423.854 134.437 429.417L120.226 429.374C118.79 429.365 114.204 429.233 113.149 429.417C110.917 429.489 108.976 429.476 106.742 429.417C101.505 429.451 96.6442 429.23 91.342 429.417C91.1402 422.261 91.3361 414.156 91.342 406.924L113.149 406.924Z"/><path fill="#310F02" transform="scale(2 2)" d="M91.342 406.924L113.149 406.924C112.831 413.774 113.181 422.403 113.149 429.417C111.269 429.412 108.551 429.317 106.742 429.417C101.505 429.451 96.6442 429.23 91.342 429.417C91.1402 422.261 91.3361 414.156 91.342 406.924Z"/><path fill="#FE6233" transform="scale(2 2)" d="M177.609 429.417C178.819 429.035 197.061 429.412 199.437 429.417L199.437 452.145L177.609 452.145L177.609 429.417Z"/><path fill="#310F02" transform="scale(2 2)" d="M134.437 429.417L134.437 429.417L134.437 452.145L113.149 452.145L113.149 429.417C114.204 429.233 118.79 429.365 120.226 429.374L134.437 429.417Z"/><path fill="#310F02" transform="scale(2 2)" d="M203.404 339.44L221.967 339.44C221.811 346.801 222.257 353.957 221.967 361.472L199.437 361.472C199.233 354.358 199.484 346.657 199.437 339.44C200.55 339.537 202.483 339.86 203.404 339.44Z"/><path fill="#FD4A13" transform="scale(2 2)" d="M177.609 406.924C184.414 406.954 192.786 406.618 199.437 406.924C199.437 414.046 199.682 422.399 199.437 429.417C197.061 429.412 178.819 429.035 177.609 429.417L177.609 406.924Z"/><path fill="#FEE04C" transform="scale(2 2)" d="M134.437 429.417C140.656 429.408 149.689 429.091 155.661 429.417L155.661 452.145L134.437 452.145L134.437 429.417Z"/><path fill="#310F02" transform="scale(2 2)" d="M356.108 384.352L377.56 384.352L377.56 406.924C383.47 406.914 392.628 406.595 398.266 406.924L398.285 436.904C398.288 441.135 398.515 448.092 398.266 452.145C391.102 451.94 384.485 452.259 377.56 452.145C377.541 459.519 377.426 467.146 377.56 474.5C370.953 474.494 362.559 474.233 356.108 474.5L356.108 497.191C362.92 497.182 370.843 496.968 377.56 497.191L377.56 541.547L363.636 541.511C361.776 541.501 357.743 541.347 356.108 541.547C355.713 536.293 356.092 525.106 356.108 519.422L356.108 497.191L334.421 497.191L334.421 474.5L334.421 452.145L334.421 429.417C334.434 423.541 333.966 412.165 334.421 406.924L356.108 406.924L356.108 384.352Z"/><path fill="#FEC73F" transform="scale(2 2)" d="M356.108 406.924L377.56 406.924C377.143 412.957 377.576 422.955 377.56 429.417C371.056 429.389 362.406 429.76 356.108 429.417L356.108 406.924Z"/><path fill="#FD4A13" transform="scale(2 2)" d="M356.108 429.417C362.406 429.76 371.056 429.389 377.56 429.417L377.56 452.145L356.108 452.145L356.108 429.417Z"/><path fill="#310F02" transform="scale(2 2)" d="M312.804 339.44L356.108 339.44C356.086 345.984 355.909 353.274 356.108 359.759L356.246 361.082C355.422 361.871 336.966 361.463 334.421 361.472C334.431 376.354 334.717 392.12 334.421 406.924C333.966 412.165 334.434 423.541 334.421 429.417C327.344 429.235 319.964 429.596 312.804 429.417L312.804 429.417L290.351 429.417L290.351 406.924L290.351 406.924C290.389 399.431 290.464 391.836 290.351 384.352C283.343 384.313 274.444 384.09 267.524 384.352L267.524 361.472L287.599 361.472L287.421 361.115C288.07 360.701 288.53 360.852 289.332 360.919L289.675 360.95C290.397 359.864 290.311 341.821 290.351 339.44C291.697 339.535 294.67 339.934 295.613 339.44L312.804 339.44Z"/><path fill="#FAF7F5" transform="scale(2 2)" d="M287.599 361.472L290.351 361.472L290.351 384.352C283.343 384.313 274.444 384.09 267.524 384.352L267.524 361.472L287.599 361.472Z"/><path fill="#FD4A13" transform="scale(2 2)" d="M290.351 361.472L312.804 361.472L312.84 377.814C312.86 380.779 313.082 384.399 312.804 387.266C312.887 381.598 296.368 384.482 290.351 384.352L290.351 361.472Z"/><path fill="#FEE04C" transform="scale(2 2)" d="M290.351 384.352C296.368 384.482 312.887 381.598 312.804 387.266C312.848 389.412 312.959 391.863 312.804 393.978L312.804 406.924C306.271 407.153 296.399 406.047 290.351 406.924L290.351 406.924C290.389 399.431 290.464 391.836 290.351 384.352Z"/><path fill="#FD4A13" transform="scale(2 2)" d="M290.351 406.924C296.399 406.047 306.271 407.153 312.804 406.924L312.846 421.191C312.866 423.335 313.067 427.557 312.804 429.417L312.804 429.417L290.351 429.417L290.351 406.924Z"/><path fill="#FD4A13" transform="scale(2 2)" d="M312.804 393.978C312.965 398.22 312.803 402.66 312.804 406.924C317.956 406.91 329.948 406.522 334.421 406.924C333.966 412.165 334.434 423.541 334.421 429.417C327.344 429.235 319.964 429.596 312.804 429.417C313.067 427.557 312.866 423.335 312.846 421.191L312.804 406.924L312.804 393.978Z"/><path fill="#FEC73F" transform="scale(2 2)" d="M312.804 474.5C319.915 474.456 327.334 474.097 334.421 474.5L334.421 497.191L356.108 497.191L356.108 519.422C356.092 525.106 355.713 536.293 356.108 541.547L356.108 541.547L356.108 564.054L312.804 564.054L312.804 541.547L312.804 541.547C311.146 541.371 307.295 541.504 305.453 541.509L290.351 541.547L290.351 519.422L290.351 519.422C290.467 518.981 290.449 497.609 290.351 497.191L290.351 497.191L290.351 474.5L312.804 474.5Z"/><path fill="#361504" transform="scale(2 2)" d="M312.804 541.547C313.48 541.097 349.118 540.925 356.108 541.547L356.108 564.054L312.804 564.054L312.804 541.547Z"/><path fill="#FD4A13" transform="scale(2 2)" d="M312.804 519.422L356.108 519.422C356.092 525.106 355.713 536.293 356.108 541.547L356.108 541.547C349.118 540.925 313.48 541.097 312.804 541.547L312.804 541.547C312.275 538.587 312.673 524.504 312.804 520.878L312.804 519.422Z"/><path fill="#310F02" transform="scale(2 2)" d="M290.351 519.422L304.659 519.406C307.476 519.406 312.176 518.311 312.804 520.878C312.673 524.504 312.275 538.587 312.804 541.547C311.146 541.371 307.295 541.504 305.453 541.509L290.351 541.547L290.351 519.422Z"/><path fill="#FD4A13" transform="scale(2 2)" d="M290.351 497.191C297.585 497.417 305.508 497.178 312.804 497.191L312.749 511.508C312.733 513.319 312.545 517.992 312.804 519.422L312.804 520.878C312.176 518.311 307.476 519.406 304.659 519.406L290.351 519.422L290.351 519.422C290.467 518.981 290.449 497.609 290.351 497.191L290.351 497.191Z"/><path fill="#FAF7F5" transform="scale(2 2)" d="M244.742 361.472L267.524 361.472L267.524 384.352C274.444 384.09 283.343 384.313 290.351 384.352C290.464 391.836 290.389 399.431 290.351 406.924L290.351 406.924L290.351 429.417L289.484 429.417C282.437 429.239 274.633 429.412 267.524 429.417L267.524 406.924C261.409 407.306 251.243 406.939 244.742 406.924L244.742 384.352L221.967 384.352L221.967 383.646C221.87 376.334 221.965 368.802 221.967 361.472L244.742 361.472Z"/><path fill="#FEF172" transform="scale(2 2)" d="M244.742 361.472L267.524 361.472L267.524 384.352C260.365 384.566 252.029 384.294 244.742 384.352C244.338 378.482 244.733 367.678 244.742 361.472Z"/><path fill="#FEF172" transform="scale(2 2)" d="M267.524 384.352C274.444 384.09 283.343 384.313 290.351 384.352C290.464 391.836 290.389 399.431 290.351 406.924C283.225 406.352 274.657 406.663 267.524 406.924C267.728 404.659 267.573 401.276 267.561 398.908L267.524 384.352Z"/><path fill="#C7C5C4" transform="scale(2 2)" d="M267.524 474.5L290.351 474.5L290.351 497.191L290.351 497.191C290.449 497.609 290.467 518.981 290.351 519.422C284.507 519.031 273.73 519.404 267.524 519.422C267.325 518.21 267.471 513.642 267.483 512.039L267.524 497.191C262.46 497.618 250.226 497.201 244.742 497.191L244.742 497.191C244.449 490.461 244.737 481.418 244.742 474.5C251.398 474.492 261.132 474.158 267.524 474.5Z"/><path fill="#361504" transform="scale(2 2)" d="M244.742 474.5C251.398 474.492 261.132 474.158 267.524 474.5L267.524 497.191L244.742 497.191C244.449 490.461 244.737 481.418 244.742 474.5Z"/><path fill="#310F02" transform="scale(2 2)" d="M267.524 497.191L290.351 497.191C290.449 497.609 290.467 518.981 290.351 519.422C284.507 519.031 273.73 519.404 267.524 519.422C267.791 517.808 267.593 513.065 267.568 511.099L267.524 497.191Z"/><path fill="#FEF172" transform="scale(2 2)" d="M221.967 384.352L244.742 384.352L244.742 406.924C251.243 406.939 261.409 407.306 267.524 406.924L267.524 429.417C274.633 429.412 282.437 429.239 289.484 429.417C285.228 429.871 272.693 429.401 267.524 429.417C267.612 431.678 267.766 445.595 267.524 447.503C267.292 442.121 267.517 434.939 267.524 429.417C260.073 429.265 252.224 429.401 244.742 429.417C244.721 422.63 245.127 413.36 244.742 406.924C238.812 406.937 227.341 406.026 221.967 406.924L221.967 384.352Z"/><path fill="#C7C5C4" transform="scale(2 2)" d="M244.742 452.145L267.524 452.145L267.524 474.5C261.132 474.158 251.398 474.492 244.742 474.5C244.733 468.543 244.336 457.712 244.742 452.145Z"/><path fill="#FE6233" transform="scale(2 2)" d="M290.351 429.417L290.351 452.145L267.524 452.145L267.524 447.503C267.766 445.595 267.612 431.678 267.524 429.417C272.693 429.401 285.228 429.871 289.484 429.417L290.351 429.417Z"/><path fill="#FE6233" transform="scale(2 2)" d="M221.967 429.417C229.5 429.574 237.186 429.395 244.742 429.417L244.742 452.145C237.694 452.128 228.903 451.857 221.967 452.145C221.968 444.917 222.189 436.541 221.967 429.417Z"/><path fill="#FE6233" transform="scale(2 2)" d="M199.437 406.924C205.4 407.646 215.766 407.032 221.967 406.924L221.967 429.417C214.777 429.225 206.7 429.413 199.437 429.417C199.682 422.399 199.437 414.046 199.437 406.924Z"/><path fill="#C7C5C4" transform="scale(2 2)" d="M177.609 452.145L199.437 452.145C199.577 459.551 199.42 467.08 199.437 474.5C201.025 474.49 203.237 474.411 204.771 474.5C197.458 474.995 185.008 474.905 177.609 474.5L177.609 452.145Z"/><path fill="#FE6233" transform="scale(2 2)" d="M312.804 429.417L312.804 429.417C319.964 429.596 327.344 429.235 334.421 429.417L334.421 452.145L312.804 452.145C312.959 449.586 313.236 431.394 312.804 429.417Z"/><path fill="#C7C5C4" transform="scale(2 2)" d="M312.804 452.145L334.421 452.145L334.421 474.5C327.334 474.097 319.915 474.456 312.804 474.5L312.804 452.145Z"/><path fill="#FEC73F" transform="scale(2 2)" d="M177.609 474.5C185.008 474.905 197.458 474.995 204.771 474.5C209.972 474.495 216.908 474.277 221.967 474.5C229.326 474.589 237.392 474.653 244.742 474.5C244.737 481.418 244.449 490.461 244.742 497.191L244.742 497.191L244.742 519.422L229.519 519.385C227.675 519.377 223.543 519.23 221.967 519.422L221.967 519.422C221.905 526.802 221.771 534.169 221.967 541.547C214.537 541.544 206.843 541.434 199.437 541.547L199.437 564.054L155.661 564.054L155.661 541.547L135.24 541.547L134.812 541.315C134.305 539.366 134.432 529.429 134.431 526.914L134.437 497.191L149.584 497.191C151.864 497.09 153.389 497.068 155.661 497.191C160.618 496.801 172.164 497.177 177.609 497.191L177.609 474.5Z"/><path fill="#FD4A13" transform="scale(2 2)" d="M134.437 497.191L149.584 497.191C151.476 497.183 153.806 497.107 155.661 497.191L155.661 519.422L186.675 519.432C188.973 519.436 197.798 519.693 199.437 519.422L199.437 519.422C201.901 519.418 220.519 518.993 221.967 519.422C221.905 526.802 221.771 534.169 221.967 541.547C214.537 541.544 206.843 541.434 199.437 541.547L199.437 564.054L155.661 564.054L155.661 541.547L135.24 541.547L134.812 541.315C134.305 539.366 134.432 529.429 134.431 526.914L134.437 497.191Z"/><path fill="#310F02" transform="scale(2 2)" d="M199.437 519.422C201.901 519.418 220.519 518.993 221.967 519.422C221.905 526.802 221.771 534.169 221.967 541.547C214.537 541.544 206.843 541.434 199.437 541.547L199.437 564.054L155.661 564.054L155.661 541.547C169.732 541.884 185.246 541.549 199.437 541.547C199.45 534.314 199.235 526.609 199.437 519.422Z"/><path fill="#310F02" transform="scale(2 2)" d="M134.437 497.191L149.584 497.191C151.476 497.183 153.806 497.107 155.661 497.191L155.661 519.422L155.661 541.547L141.905 541.508C140.36 541.505 136.608 541.394 135.24 541.547L134.812 541.315C134.305 539.366 134.432 529.429 134.431 526.914L134.437 497.191Z"/><path fill="#C7C5C4" transform="scale(2 2)" d="M221.967 474.5C229.326 474.589 237.392 474.653 244.742 474.5C244.737 481.418 244.449 490.461 244.742 497.191L244.742 497.191L244.742 519.422L229.519 519.385C227.675 519.377 223.543 519.23 221.967 519.422C221.865 519.101 221.777 498.791 221.967 497.191C222.144 489.887 221.971 481.863 221.967 474.5Z"/><path fill="#310F02" transform="scale(2 2)" d="M221.967 497.191L244.742 497.191L244.742 497.191L244.742 519.422L229.519 519.385C227.675 519.377 223.543 519.23 221.967 519.422C221.865 519.101 221.777 498.791 221.967 497.191Z"/><path fill="#FD4A13" transform="scale(2 2)" d="M221.967 497.191C221.777 498.791 221.865 519.101 221.967 519.422L221.967 519.422C220.519 518.993 201.901 519.418 199.437 519.422L199.437 519.422L199.437 497.191L221.967 497.191Z"/><path fill="#FEE04C" transform="scale(2 2)" d="M113.149 361.472L134.437 361.472L134.437 406.924L113.149 406.924L91.342 406.924C85.2232 407.245 76.3297 406.943 70.0644 406.924C69.8762 402.226 70.0433 396.314 70.0459 391.512L70.0644 361.472L91.342 361.472L113.149 361.472Z"/><path fill="#310F02" transform="scale(2 2)" d="M70.0644 361.472L91.342 361.472L91.342 389.237L91.342 406.924C85.2232 407.245 76.3297 406.943 70.0644 406.924C69.8762 402.226 70.0433 396.314 70.0459 391.512L70.0644 361.472Z"/><path fill="#310F02" transform="scale(2 2)" d="M113.149 361.472L134.437 361.472L134.437 406.924L113.149 406.924L113.149 384.352L113.149 361.472Z"/><path fill="#361504" transform="scale(2 2)" d="M91.342 339.44L113.149 339.44C113.142 344.92 112.755 356.505 113.149 361.472L91.342 361.472L91.342 339.44Z"/></svg>